<svg width="179" height="76" viewBox="0 0 179 76" fill="none" xmlns="http://www.w3.org/2000/svg">
<path d="M85.5206 66.977C68.8015 66.977 60.1241 57.607 59.4998 45.808C58.8755 34.0089 69.4692 19.0865 86.1883 19.0865C102.907 19.0865 111.585 28.4564 112.209 40.256C112.833 52.055 102.24 66.977 85.5206 66.977ZM85.4425 52.055C91.1339 52.055 94.7719 46.849 94.4779 41.297C94.1839 35.7441 91.2649 34.356 86.2847 34.356C81.3046 34.356 76.9556 39.561 77.2493 45.114C77.5431 50.667 80.4624 52.055 85.4425 52.055ZM131.354 65.936H113.924L124.811 2.77588H142.241L131.336 65.589L131.354 65.936Z" fill="white"/>
<path fill-rule="evenodd" clip-rule="evenodd" d="M33.9257 66.977C28.5904 66.977 23.1634 65.242 20.0976 61.078L19.2875 65.936L0.257324 76L1.85902 65.936L12.745 2.77588H30.1736L26.369 24.9861C30.0612 20.8216 33.8819 19.0865 38.8615 19.0865C49.5321 19.0865 56.6389 25.6801 57.2998 38.173C57.9608 50.667 50.6429 66.977 33.9257 66.977ZM39.3435 41.644C39.6556 47.543 35.626 52.055 29.9351 52.055C24.2441 52.055 23.8334 51.014 21.9448 48.931L24.1844 37.4793C26.2084 35.3971 28.2874 34.356 31.1329 34.356C35.4011 34.356 39.1232 37.4793 39.3619 41.991L39.3435 41.644Z" fill="white"/>
<path d="M163.832 66.978C153.874 66.978 146.221 63.507 145.799 55.525C145.377 47.544 145.671 53.096 145.971 52.055L148.984 35.0504H141.16L143.945 20.475H151.769L153.954 7.9818L173.092 0L171.38 7.9818L169.196 20.475H178.798L176.013 35.0504H166.411L164.508 46.156L164.619 48.238C164.729 50.32 166.243 52.055 169.088 52.055C171.933 52.055 171.222 52.055 171.559 51.708L172.275 65.242C170.571 66.631 167.388 66.978 164.187 66.978H163.832Z" fill="white"/>
</svg>
