<svg width="343" height="94" viewBox="0 0 343 94" fill="none" xmlns="http://www.w3.org/2000/svg">
<path d="M130.395 20.0337C116.526 20.0337 105.149 31.4018 105.149 45.3256C105.149 59.249 116.497 70.617 130.395 70.617C144.294 70.617 155.641 59.308 155.641 45.3256C155.641 31.3431 144.323 20.0337 130.395 20.0337ZM130.395 61.541C121.775 61.541 114.825 54.461 114.825 45.3256C114.825 36.1899 121.775 29.0812 130.395 29.0812C139.016 29.0812 145.965 36.1606 145.965 45.2962C145.965 54.432 139.016 61.541 130.395 61.541Z" fill="white"/>
<path d="M181.122 34.0752C176.577 34.0752 172.149 35.8964 169.833 38.9808V34.7802H160.714V83.9242H169.833V66.1522C172.149 69.0312 176.43 70.5882 181.122 70.5882C190.945 70.5882 198.657 62.8622 198.657 52.3172C198.657 41.7714 190.945 34.0752 181.122 34.0752ZM179.597 62.6572C174.407 62.6572 169.774 58.5742 169.774 52.3462C169.774 46.1189 174.407 42.0358 179.597 42.0358C184.787 42.0358 189.42 46.1189 189.42 52.3462C189.42 58.5742 184.787 62.6572 179.597 62.6572Z" fill="white"/>
<path d="M220.091 34.0752C210.151 34.0752 202.292 41.8595 202.292 52.3462C202.292 62.8332 209.154 70.6172 220.384 70.6172C229.562 70.6172 235.456 65.0662 237.274 58.8092H228.36C227.246 61.3942 224.079 63.2442 220.296 63.2442C215.605 63.2442 212.027 59.9542 211.177 55.2252H237.684V51.6412C237.684 42.0652 231.028 34.0752 220.091 34.0752ZM211.265 48.7332C212.233 44.2976 215.898 41.4189 220.296 41.4189C224.988 41.4189 228.565 44.5033 228.976 48.7332H211.265Z" fill="white"/>
<path d="M261.934 34.0752C257.858 34.0752 253.606 35.8964 251.642 38.922V34.7802H242.522V69.8832H251.642V50.9952C251.642 45.5314 254.574 41.9477 259.353 41.9477C263.781 41.9477 266.156 45.3258 266.156 50.0262V69.8832H275.275V48.5272C275.275 39.8326 269.939 34.0752 261.934 34.0752Z" fill="white"/>
<path d="M298.586 20.7388L278.765 69.883H288.5L292.693 59.132H315.271L319.464 69.883H329.345L309.641 20.7388H298.586ZM295.859 50.995L303.982 30.4325L312.045 50.995H295.859Z" fill="white"/>
<path d="M342.335 20.7388H333.098V69.883H342.364V20.7388H342.335Z" fill="white"/>
<path d="M36.125 34.7505V24.9687C36.125 24.3224 36.3009 23.8524 36.9753 23.4705L55.0963 12.9249C57.53 11.5149 60.6382 10.8687 63.6583 10.8687C75.1233 10.8687 82.3658 19.7105 82.3658 29.228C82.3658 29.9918 82.3658 31.0199 82.1899 31.8718L63.2185 20.768C62.2802 20.2099 61.2539 20.1218 60.1104 20.768L36.125 34.7505ZM78.0261 69.5008V47.7638C78.0261 46.5299 77.557 45.7074 76.4428 45.0318L52.3987 31.0199L60.8434 26.1143C61.3126 25.8205 62.075 25.8205 62.5441 26.1143L80.7824 36.6599C85.9431 39.6855 89.52 46.2655 89.52 52.5518C89.491 59.9838 84.9755 66.8578 78.0261 69.5008ZM31.1402 50.7598L22.7834 45.7662C22.1383 45.3843 21.9331 44.9143 21.9331 44.268V23.2943C21.9331 13.0424 29.7328 5.31676 40.3473 5.31676C44.4817 5.31676 48.4402 6.72676 51.607 9.28236L32.7529 20.2687C31.6387 20.9149 31.1695 21.7668 31.1695 23.0005V50.7598H31.1402ZM47.5019 60.1888L36.125 53.7858V40.2437L47.5019 33.8399L58.7616 40.2437V53.7858L47.5019 60.1888ZM54.5392 88.6828C50.4048 88.6828 46.4463 87.2728 43.2795 84.7178L62.1629 73.7308C63.2772 73.0848 63.7463 72.2328 63.7463 70.9988V43.2399L72.1911 48.2338C72.8361 48.6158 73.0414 49.0858 73.0414 49.7318V70.7348C73.0414 80.9868 65.1538 88.6828 54.5392 88.6828ZM32.3717 67.8858L14.1334 57.3398C8.97275 54.3138 5.39545 47.7338 5.39545 41.448C5.39545 33.928 9.99895 27.1424 16.9483 24.4987V46.3243C16.9483 47.5578 17.4175 48.3808 18.5317 49.0558L42.4878 62.9798L34.0431 67.8858C33.6033 68.1788 32.8409 68.1788 32.3717 67.8858ZM31.2282 83.1308C20.4377 83.1308 12.5207 75.0238 12.5207 64.9778C12.5207 64.0378 12.6087 63.0978 12.6967 62.2458L31.58 73.1728C32.6943 73.8188 33.6326 73.8188 34.7761 73.1728L58.7322 59.2488V69.0308C58.7322 69.6778 58.5563 70.1478 57.8819 70.5288L39.7902 81.0748C37.3565 82.4848 34.2483 83.1308 31.2282 83.1308ZM54.5392 93.7648C65.7989 93.7648 75.2112 85.6578 77.2638 74.9358C87.7904 72.2918 94.564 62.5098 94.564 52.5228C94.564 45.9424 91.749 39.6268 86.5882 35.0149C87.0573 33.0468 87.4385 30.9612 87.4385 28.993C87.4385 15.7155 76.648 5.75736 64.2448 5.75736C61.6938 5.75736 59.1721 6.22736 56.7383 7.07926C52.4867 2.84926 46.7395 0.234863 40.3473 0.234863C29.0877 0.234863 19.6753 8.34236 17.6228 19.0643C7.09606 21.708 0.322754 31.4899 0.322754 41.4774C0.322754 48.0578 3.13765 54.3728 8.29825 58.9848C7.82915 60.9528 7.44795 63.0388 7.44795 65.0068C7.44795 78.2838 18.2385 88.2428 30.6417 88.2428C33.1928 88.2428 35.7144 87.7728 38.1482 86.9208C42.4292 91.1508 48.147 93.7648 54.5392 93.7648Z" fill="white"/>
</svg>
