<svg width="589" height="79" viewBox="0 0 589 79" fill="none" xmlns="http://www.w3.org/2000/svg">
<path fill-rule="evenodd" clip-rule="evenodd" d="M132.028 0.0207977H130.758C124.075 0.0103977 118.652 5.4233 118.652 12.1062V39.134C118.652 44.532 114.191 48.903 108.883 48.903C105.729 48.903 102.58 47.316 100.711 44.651L73.105 5.2255C70.815 1.9518 67.089 0 63.055 0C56.763 0 51.1 5.3504 51.1 11.9552V39.139C51.1 44.537 46.676 48.909 41.331 48.909C38.166 48.909 35.023 47.321 33.154 44.656L2.264 0.541298C1.5666 -0.452802 0 0.0364029 0 1.2543V24.826C0 26.018 0.364304 27.174 1.0462 28.152L31.442 71.565C33.237 74.131 35.887 76.036 38.942 76.728C46.587 78.466 53.624 72.58 53.624 65.08V37.911C53.624 32.514 57.996 28.142 63.393 28.142H63.409C66.662 28.142 69.712 29.729 71.58 32.394L99.186 71.815C101.481 75.094 105.016 77.04 109.231 77.04C115.664 77.04 121.176 71.685 121.176 65.085V37.906C121.176 32.509 125.548 28.137 130.945 28.137H132.023C132.699 28.137 133.246 27.59 133.246 26.914V1.2387C133.246 0.562101 132.699 0.0156021 132.023 0.0156021L132.028 0.0207977ZM290.506 20.3608H283.75C283.063 20.3608 282.506 20.9177 282.506 21.6048V75.786C282.506 76.473 283.063 77.03 283.75 77.03H290.506C291.193 77.03 291.75 76.473 291.75 75.786V21.6048C291.75 20.9177 291.193 20.3608 290.506 20.3608ZM283.526 0.00520325H290.725C291.412 0.00520325 291.968 0.5621 291.968 1.2491V10.0972C291.968 10.7842 291.412 11.3411 290.725 11.3411H283.526C282.839 11.3411 282.282 10.7842 282.282 10.0972V1.2491C282.282 0.5621 282.839 0.00520325 283.526 0.00520325ZM330.942 18.8203C323.349 18.8203 317.847 21.459 314.324 25.316C313.194 26.461 311.242 25.659 311.242 24.051V21.6048C311.242 20.9177 310.685 20.3608 309.998 20.3608H303.357C302.67 20.3608 302.113 20.9177 302.113 21.6048V75.786C302.113 76.473 302.67 77.03 303.357 77.03H310.004C310.691 77.03 311.248 76.473 311.248 75.786V41.487C311.248 29.599 313.558 26.96 326.216 26.96C338.874 26.96 340.961 29.053 340.961 40.935V75.781C340.961 76.468 341.518 77.025 342.205 77.025H348.961C349.648 77.025 350.205 76.468 350.205 75.781V38.4C350.205 24.863 342.502 18.8098 330.947 18.8098V18.8203H330.942ZM399.957 26.086C401.086 27.231 403.038 26.43 403.038 24.821V1.2543C403.038 0.567303 403.595 0.0103989 404.282 0.0103989H410.928C411.615 0.0103989 412.172 0.567303 412.172 1.2543V75.791C412.172 76.478 411.615 77.035 410.928 77.035H404.282C403.595 77.035 403.038 76.478 403.038 75.791V72.575C403.106 70.93 401.112 70.139 399.957 71.31C396.766 75.271 390.604 78.57 382.349 78.57C367.828 78.57 358.361 68.229 358.361 48.971C358.361 28.616 368.921 18.8203 382.677 18.8203C390.932 18.8203 396.876 22.125 399.957 26.086ZM368.369 48.747C368.369 67.344 370.68 70.097 385.758 70.097C400.727 70.097 403.038 67.344 403.038 48.747C403.038 30.151 400.836 27.288 385.758 27.288C370.68 27.288 368.369 30.151 368.369 48.747ZM450.802 45.234L439.914 43.366C431.878 41.934 430.446 39.514 430.446 35.33C430.556 29.604 432.757 26.747 443.432 26.747C453.43 26.747 456.631 29.703 457.318 36.084C457.386 36.714 457.917 37.198 458.552 37.198H465.157C465.864 37.198 466.442 36.605 466.4 35.892C465.76 24.936 455.731 18.815 443.765 18.815C430.337 18.815 421.427 25.966 421.427 36.204C421.427 45.557 428.692 49.632 437.384 51.282L449.381 53.484C455.986 54.696 458.187 56.898 458.187 61.077C458.187 67.791 455.876 70.654 444.541 70.654C433.205 70.654 430.072 67.385 429.343 60.76C429.275 60.13 428.744 59.651 428.109 59.651H421.463C420.765 59.651 420.198 60.229 420.214 60.926C420.531 72.731 431.232 78.581 443.984 78.581C457.849 78.581 467.421 71.429 467.421 60.64C467.421 51.178 460.155 46.884 450.802 45.234ZM498.903 70.435C511.228 70.435 513.539 67.797 513.539 55.909V21.6204C513.539 20.9334 514.096 20.3765 514.783 20.3765H521.539C522.226 20.3765 522.783 20.9334 522.783 21.6204V75.801C522.783 76.488 522.226 77.045 521.539 77.045H514.783C514.096 77.045 513.539 76.488 513.539 75.801V73.439C513.513 71.757 511.769 70.919 510.567 72.096C507.049 75.947 501.547 78.586 494.172 78.586C482.836 78.586 475.133 72.533 475.133 58.995V21.6152C475.133 20.9282 475.69 20.3713 476.377 20.3713H483.133C483.82 20.3713 484.377 20.9282 484.377 21.6152V56.461C484.377 68.343 486.579 70.435 498.903 70.435ZM576.839 20.3608V13.0951C576.839 10.2377 579.155 7.9216 582.012 7.9216H587.04C587.727 7.9216 588.284 7.3647 588.284 6.6777V1.2439C588.284 0.556897 587.727 0 587.04 0H583.553C573.648 0 567.595 5.5014 567.595 14.9688V20.3608H560.272C553.782 20.3712 548.687 21.2613 545.288 25.316C544.039 26.497 542.316 25.612 542.316 23.895V21.61C542.316 20.923 541.759 20.366 541.072 20.366H534.316C533.629 20.366 533.072 20.923 533.072 21.61V75.791C533.072 76.478 533.629 77.035 534.316 77.035H541.072C541.759 77.035 542.316 76.478 542.316 75.791V41.825C542.316 30.598 545.179 27.96 557.503 27.96H567.595V75.796C567.595 76.483 568.152 77.04 568.839 77.04H575.595C576.282 77.04 576.839 76.483 576.839 75.796V27.96H587.05C587.737 27.96 588.294 27.403 588.294 26.716V21.6152C588.294 20.9282 587.737 20.3713 587.05 20.3713H576.839V20.3608ZM244.892 62.899C245.132 63.893 246.022 64.596 247.042 64.596H247.047C248.062 64.596 248.947 63.903 249.191 62.92L264.686 0.947304C264.826 0.390404 265.326 0 265.898 0H273.633C274.46 0 275.064 0.780699 274.856 1.5822L255.364 76.129C255.224 76.655 254.75 77.025 254.203 77.025H240.406C239.849 77.025 239.365 76.645 239.224 76.109L223.032 13.7508C222.783 12.7776 221.903 12.0958 220.893 12.0958H220.753C219.748 12.0958 218.869 12.7776 218.614 13.7508L202.427 76.109C202.286 76.65 201.802 77.025 201.245 77.025H187.448C186.901 77.025 186.422 76.655 186.287 76.129L166.795 1.5822C166.587 0.780699 167.191 0 168.019 0H175.753C176.325 0 176.825 0.390404 176.965 0.947304L192.455 62.92C192.699 63.903 193.579 64.596 194.599 64.596C195.619 64.596 196.509 63.893 196.749 62.899L211.639 0.957703C211.775 0.395603 212.274 0 212.852 0H228.794C229.372 0 229.871 0.395603 230.007 0.957703L244.892 62.899Z" fill="white"/>
</svg>
