<?xml version="1.0" encoding="UTF-8"?>
<svg id="Layer_1" data-name="Layer 1" xmlns="http://www.w3.org/2000/svg" viewBox="0 0 500 320">
  <polygon points="85.47 125.53 51.53 125.53 34.02 125.53 34.02 143.03 34.02 194.47 51.53 194.47 51.53 143.03 85.47 143.03 85.47 176.97 59.6 176.97 59.6 194.47 85.47 194.47 102.97 176.97 102.97 143.03 102.97 125.53 85.47 125.53" fill="#0f172a"/>
  <g>
    <path d="M145.66,134.56c-2.38-1.29-5.27-1.93-8.66-1.93h-17.42v44.67h9.14v-14.6h8.06c3.44,0,6.36-.63,8.77-1.9,2.41-1.27,4.25-3.03,5.52-5.28,1.27-2.25,1.9-4.85,1.9-7.81s-.62-5.54-1.87-7.81c-1.25-2.27-3.06-4.05-5.44-5.34ZM142.65,151.67c-.59,1.14-1.49,2.03-2.7,2.68-1.21.65-2.75.97-4.63.97h-6.6v-15.14h6.57c1.88,0,3.43.31,4.65.94s2.12,1.51,2.71,2.64c.59,1.13.88,2.44.88,3.94s-.3,2.82-.88,3.96Z" fill="#0f172a"/>
    <path d="M176.3,143.33c-1.88,0-3.54.53-4.99,1.59-1.45,1.06-2.48,2.63-3.1,4.71h-.36v-5.85h-8.69v33.52h8.99v-19.07c0-1.4.3-2.62.91-3.67.61-1.05,1.46-1.87,2.56-2.46,1.1-.59,2.33-.88,3.69-.88.68,0,1.4.04,2.16.12.76.08,1.34.19,1.74.33v-8.03c-.4-.1-.87-.17-1.41-.22-.54-.05-1.04-.07-1.5-.07Z" fill="#0f172a"/>
    <path d="M206.39,145.53c-2.45-1.45-5.36-2.17-8.74-2.17s-6.27.72-8.72,2.17c-2.46,1.45-4.35,3.47-5.68,6.06-1.33,2.59-1.99,5.62-1.99,9.1s.66,6.45,1.99,9.04c1.33,2.59,3.22,4.61,5.68,6.06,2.46,1.45,5.37,2.17,8.72,2.17s6.29-.73,8.74-2.17c2.45-1.45,4.34-3.47,5.67-6.06,1.33-2.59,1.99-5.6,1.99-9.04s-.66-6.51-1.99-9.1c-1.33-2.59-3.22-4.61-5.67-6.06ZM204.1,165.89c-.54,1.55-1.35,2.77-2.43,3.66s-2.42,1.33-4.02,1.33-2.93-.44-4-1.33c-1.07-.89-1.87-2.11-2.41-3.66-.54-1.55-.81-3.29-.81-5.23s.27-3.74.81-5.28,1.34-2.75,2.41-3.63c1.07-.88,2.4-1.32,4-1.32s2.94.44,4.02,1.32c1.08.88,1.89,2.09,2.43,3.63.54,1.54.81,3.3.81,5.28s-.27,3.68-.81,5.23Z" fill="#0f172a"/>
    <path d="M263.47,144.62c-1.61-.9-3.44-1.35-5.5-1.35-1.7,0-3.32.34-4.87,1-1.55.67-2.89,1.7-4.02,3.09-.78.96-1.4,2.11-1.88,3.43-.68-2.27-1.61-4.02-2.78-5.23-1.48-1.53-3.43-2.29-5.85-2.29-1.5,0-2.93.31-4.29.93-1.36.62-2.54,1.58-3.55,2.88-.7.9-1.27,1.99-1.73,3.24l-.35-6.54h-8.33v33.52h8.99v-20.27c0-1.34.24-2.47.73-3.4s1.16-1.63,2.01-2.11c.85-.48,1.8-.72,2.86-.72,1.54,0,2.79.48,3.76,1.45.97.97,1.45,2.27,1.45,3.91v21.14h8.69v-20.63c0-1.18.22-2.21.67-3.09.45-.88,1.09-1.56,1.92-2.05s1.8-.73,2.92-.73c1.5,0,2.76.46,3.79,1.38,1.03.92,1.54,2.33,1.54,4.23v20.9h8.99v-22.6c0-2.44-.46-4.5-1.39-6.19s-2.2-2.98-3.81-3.88Z" fill="#0f172a"/>
    <path d="M301.98,145.28c-2.06-1.28-4.33-1.92-6.81-1.92-1.9,0-3.48.32-4.74.96s-2.27,1.43-3.04,2.37c-.77.94-1.36,1.85-1.78,2.73h-.42v-5.64h-8.84v46.05h8.99v-17.9h.27c.42.9,1.02,1.8,1.81,2.71s1.81,1.67,3.07,2.29c1.26.62,2.8.93,4.62.93,2.58,0,4.9-.66,6.96-1.99,2.06-1.33,3.69-3.28,4.89-5.85,1.2-2.57,1.8-5.71,1.8-9.43s-.61-7.01-1.84-9.56-2.87-4.48-4.93-5.76ZM298.73,165.79c-.55,1.52-1.36,2.71-2.43,3.57-1.07.86-2.38,1.29-3.94,1.29s-2.82-.42-3.9-1.26-1.9-2.01-2.47-3.52c-.57-1.51-.85-3.27-.85-5.29s.28-3.8.84-5.29c.56-1.49,1.38-2.65,2.46-3.48,1.08-.83,2.39-1.24,3.93-1.24s2.9.43,3.96,1.29c1.06.86,1.86,2.04,2.41,3.54s.83,3.23.83,5.19-.28,3.7-.83,5.22Z" fill="#0f172a"/>
    <path d="M329.92,170.48c-.62.09-1.1.13-1.44.13-1.1,0-1.88-.25-2.35-.76s-.7-1.29-.7-2.35v-16.85h6.27v-6.87h-6.27v-7.97h-8.99v7.97h-4.62v6.87h4.62v17.63c0,3.06.89,5.41,2.67,7.04,1.78,1.64,4.35,2.46,7.7,2.46.9,0,1.84-.06,2.83-.18.99-.12,1.98-.33,2.98-.63l-1.29-6.74c-.32.08-.79.16-1.41.25Z" fill="#0f172a"/>
    <path d="M363.98,134.56c-2.38-1.29-5.27-1.93-8.67-1.93h-17.42v44.67h9.14v-14.6h8.07c3.44,0,6.36-.63,8.77-1.9,2.41-1.27,4.25-3.03,5.52-5.28,1.27-2.25,1.9-4.85,1.9-7.81s-.62-5.54-1.87-7.81c-1.25-2.27-3.06-4.05-5.44-5.34ZM360.97,151.67c-.59,1.14-1.49,2.03-2.7,2.68-1.21.65-2.75.97-4.63.97h-6.6v-15.14h6.57c1.88,0,3.43.31,4.65.94,1.22.63,2.12,1.51,2.71,2.64.59,1.13.88,2.44.88,3.94s-.29,2.82-.88,3.96Z" fill="#0f172a"/>
    <path d="M381.97,130.17c-1.36,0-2.52.45-3.48,1.35-.96.9-1.44,1.99-1.44,3.27s.48,2.37,1.44,3.27c.96.9,2.12,1.35,3.48,1.35s2.52-.45,3.49-1.35c.97-.9,1.45-1.99,1.45-3.27s-.49-2.37-1.45-3.27c-.97-.9-2.13-1.35-3.49-1.35Z" fill="#0f172a"/>
    <rect x="377.47" y="143.78" width="8.99" height="33.52" fill="#0f172a"/>
    <rect x="394.11" y="132.63" width="8.99" height="44.67" fill="#0f172a"/>
    <path d="M434.48,145.53c-2.45-1.45-5.36-2.17-8.74-2.17s-6.27.72-8.72,2.17-4.35,3.47-5.68,6.06c-1.33,2.59-1.99,5.62-1.99,9.1s.66,6.45,1.99,9.04c1.33,2.59,3.22,4.61,5.68,6.06,2.46,1.45,5.37,2.17,8.72,2.17s6.29-.73,8.74-2.17c2.45-1.45,4.34-3.47,5.67-6.06,1.33-2.59,1.99-5.6,1.99-9.04s-.66-6.51-1.99-9.1c-1.33-2.59-3.22-4.61-5.67-6.06ZM432.19,165.89c-.54,1.55-1.35,2.77-2.43,3.66-1.08.89-2.42,1.33-4.02,1.33s-2.93-.44-4-1.33c-1.07-.89-1.87-2.11-2.41-3.66-.54-1.55-.81-3.29-.81-5.23s.27-3.74.81-5.28c.54-1.54,1.34-2.75,2.41-3.63,1.07-.88,2.4-1.32,4-1.32s2.94.44,4.02,1.32c1.08.88,1.89,2.09,2.43,3.63.54,1.54.81,3.3.81,5.28s-.27,3.68-.81,5.23Z" fill="#0f172a"/>
    <path d="M464.69,170.22c-.32.08-.79.16-1.41.25-.62.09-1.1.13-1.44.13-1.1,0-1.88-.25-2.35-.76s-.7-1.29-.7-2.35v-16.85h6.27v-6.87h-6.27v-7.97h-8.99v7.97h-4.62v6.87h4.62v17.63c0,3.06.89,5.41,2.67,7.04,1.78,1.64,4.35,2.46,7.7,2.46.9,0,1.84-.06,2.83-.18.99-.12,1.98-.33,2.98-.63l-1.29-6.74Z" fill="#0f172a"/>
  </g>
</svg>